<?xml version="1.0" encoding="UTF-8"?>
<svg id="Layer_1" data-name="Layer 1" xmlns="http://www.w3.org/2000/svg" viewBox="0 0 72 72">
  <defs>
    <style>
      .cls-1 {
        fill: #ff61f6;
      }

      .cls-2 {
        fill: #470137;
      }
    </style>
  </defs>
  <g id="Layer_2" data-name="Layer 2">
    <g id="Surfaces">
      <g id="UI_UX_Surface" data-name="UI UX Surface">
        <g id="Outline_no_shadow" data-name="Outline no shadow">
          <path class="cls-2" d="M12.75.9h46.5c7.05,0,12.75,5.7,12.75,12.75v44.7c0,7.05-5.7,12.75-12.75,12.75H12.75c-7.05,0-12.75-5.7-12.75-12.75V13.65C0,6.6,5.7.9,12.75.9Z"/>
        </g>
      </g>
    </g>
    <g id="Outlined_Mnemonics_Logos" data-name="Outlined Mnemonics Logos">
      <g id="Xd">
        <path class="cls-1" d="M37.86,19.35l-9,14.85,9.6,15.75c.06.12.09.24.06.36s-.15.03-.33.06h-6.87c-.48,0-.81-.03-1.02-.33-.63-1.26-1.29-2.49-1.92-3.75-.63-1.23-1.32-2.49-2.04-3.78s-1.44-2.58-2.16-3.9h-.06c-.63,1.29-1.32,2.58-2.01,3.87-.69,1.29-1.38,2.58-2.04,3.84-.69,1.26-1.38,2.55-2.07,3.78-.12.3-.36.33-.69.33h-6.6c-.12,0-.21.06-.21-.09-.03-.12,0-.24.06-.33l9.33-15.3-9.09-15.39c-.09-.12-.12-.24-.06-.3.06-.09.18-.12.3-.12h6.81c.15,0,.3.03.42.06.12.06.21.15.3.27.57,1.29,1.23,2.58,1.92,3.87.72,1.29,1.41,2.55,2.16,3.81.72,1.26,1.38,2.52,2.01,3.81h.06c.63-1.32,1.29-2.61,1.95-3.87.66-1.26,1.35-2.52,2.04-3.78s1.35-2.55,2.01-3.78c.03-.12.09-.24.18-.3.12-.06.24-.09.39-.06h6.33c.15-.03.3.06.33.21.03.03-.03.15-.09.21h0Z"/>
        <path class="cls-1" d="M51.72,51c-2.22.03-4.44-.42-6.45-1.35-1.89-.87-3.45-2.31-4.53-4.08-1.11-1.83-1.65-4.11-1.65-6.84-.03-2.22.54-4.41,1.65-6.33,1.14-1.95,2.79-3.57,4.77-4.65,2.1-1.17,4.62-1.74,7.59-1.74.15,0,.36,0,.63.03.27.03.57.03.93.06v-9.48c0-.21.09-.33.3-.33h6.09c.15-.03.27.09.3.21v28.62c0,.54.03,1.14.06,1.8.06.63.09,1.23.12,1.74,0,.21-.09.39-.3.48-1.56.66-3.21,1.14-4.89,1.44-1.53.27-3.06.42-4.62.42ZM54.66,45v-13.2c-.27-.06-.54-.12-.81-.15-.33-.03-.66-.06-.99-.06-1.17,0-2.34.24-3.39.78-1.02.51-1.89,1.26-2.55,2.22-.66.96-.99,2.25-.99,3.81-.03,1.05.15,2.1.51,3.09.3.81.75,1.53,1.35,2.13.57.54,1.26.96,2.04,1.2.81.27,1.65.39,2.49.39.45,0,.87-.03,1.26-.06.39.03.72-.03,1.08-.15Z"/>
      </g>
    </g>
  </g>
</svg>