<?xml version="1.0" encoding="UTF-8"?>
<svg id="Layer_1" data-name="Layer 1" xmlns="http://www.w3.org/2000/svg" viewBox="0 0 72 72">
  <defs>
    <style>
      .cls-1 {
        fill: #ff9a00;
      }

      .cls-2 {
        fill: #300;
      }
    </style>
  </defs>
  <path class="cls-2" d="M12.75.9h46.5c7.05,0,12.75,5.7,12.75,12.75v44.7c0,7.05-5.7,12.75-12.75,12.75H12.75c-7.05,0-12.75-5.7-12.75-12.75V13.65C0,6.6,5.7.9,12.75.9Z"/>
  <path class="cls-1" d="M34.8,42.9h-11.16l-2.28,7.05c-.06.27-.3.45-.57.42h-5.64c-.33,0-.42-.18-.33-.54l9.66-27.81c.09-.3.18-.63.3-.99.12-.63.18-1.29.18-1.95-.03-.15.09-.3.24-.33h7.77c.24,0,.36.09.39.24l10.95,30.9c.09.33,0,.48-.3.48h-6.27c-.21.03-.42-.12-.48-.33l-2.46-7.14ZM25.38,36.81h7.62c-.18-.63-.42-1.38-.69-2.16-.27-.81-.54-1.68-.81-2.58-.3-.93-.57-1.83-.87-2.76s-.57-1.8-.81-2.67c-.24-.84-.45-1.62-.66-2.34h-.06c-.27,1.29-.6,2.58-1.02,3.87-.45,1.44-.9,2.94-1.38,4.44-.42,1.53-.87,2.94-1.32,4.2ZM51,24c-.99.03-1.95-.36-2.67-1.05-.69-.75-1.05-1.74-1.02-2.76-.03-1.02.36-1.98,1.08-2.67s1.68-1.05,2.67-1.05c1.17,0,2.07.36,2.73,1.05.66.72,1.02,1.68.99,2.67.03,1.02-.33,2.01-1.05,2.76-.69.72-1.71,1.11-2.73,1.05h0ZM47.64,50.04v-23.1c0-.3.12-.42.39-.42h5.94c.27,0,.39.15.39.42v23.1c0,.33-.12.48-.39.48h-5.88c-.3,0-.45-.18-.45-.48Z"/>
</svg>