<?xml version="1.0" encoding="UTF-8"?>
<svg id="Layer_1" data-name="Layer 1" xmlns="http://www.w3.org/2000/svg" viewBox="0 0 72 72">
  <defs>
    <style>
      .cls-1 {
        fill: #001e36;
      }

      .cls-2 {
        fill: #31a8ff;
      }
    </style>
  </defs>
  <g id="Layer_2" data-name="Layer 2">
    <g id="Surfaces">
      <g id="Photo_Surface" data-name="Photo Surface">
        <g id="Outline_no_shadow" data-name="Outline no shadow">
          <path class="cls-1" d="M12.75.9h46.5c7.05,0,12.75,5.7,12.75,12.75v44.7c0,7.05-5.7,12.75-12.75,12.75H12.75c-7.05,0-12.75-5.7-12.75-12.75V13.65C0,6.6,5.7.9,12.75.9Z"/>
        </g>
      </g>
    </g>
    <g id="Outlined_Mnemonics_Logos" data-name="Outlined Mnemonics Logos">
      <g id="Ps">
        <path class="cls-2" d="M16.2,50.13v-30.87c0-.21.09-.33.3-.33.51,0,.99,0,1.68-.03.72-.03,1.47-.03,2.28-.06.81-.03,1.68-.03,2.61-.06.93-.03,1.83-.03,2.73-.03,2.46,0,4.5.3,6.18.93,1.5.51,2.88,1.35,4.02,2.46.96.96,1.71,2.13,2.19,3.42.45,1.26.69,2.55.69,3.9,0,2.58-.6,4.71-1.8,6.39s-2.88,2.94-4.83,3.66c-2.04.75-4.29,1.02-6.75,1.02-.72,0-1.2,0-1.5-.03s-.72-.03-1.29-.03v9.63c.03.21-.12.39-.33.42h-5.82c-.24,0-.36-.12-.36-.39ZM22.74,24.72v10.08c.42.03.81.06,1.17.06h1.59c1.17,0,2.34-.18,3.45-.54.96-.27,1.8-.84,2.46-1.59.63-.75.93-1.77.93-3.09.03-.93-.21-1.86-.69-2.67-.51-.78-1.23-1.38-2.1-1.71-1.11-.45-2.31-.63-3.54-.6-.78,0-1.47,0-2.04.03-.6-.03-1.02,0-1.23.03h0Z"/>
        <path class="cls-2" d="M57.6,32.97c-.9-.48-1.86-.81-2.88-1.02-1.11-.24-2.22-.39-3.36-.39-.6-.03-1.23.06-1.8.21-.39.09-.72.3-.93.6-.15.24-.24.54-.24.81s.12.54.3.78c.27.33.63.6,1.02.81.69.36,1.41.69,2.13.99,1.62.54,3.18,1.29,4.62,2.19.99.63,1.8,1.47,2.37,2.49.48.96.72,2.01.69,3.09.03,1.41-.39,2.82-1.17,3.99-.84,1.2-2.01,2.13-3.36,2.67-1.47.63-3.27.96-5.43.96-1.38,0-2.73-.12-4.08-.39-1.05-.18-2.1-.51-3.06-.96-.21-.12-.36-.33-.33-.57v-5.22c0-.09.03-.21.12-.27.09-.06.18-.03.27.03,1.17.69,2.4,1.17,3.72,1.47,1.14.3,2.34.45,3.54.45s1.95-.15,2.49-.42c.48-.21.81-.72.81-1.26,0-.42-.24-.81-.72-1.2-.48-.39-1.47-.84-2.94-1.41-1.53-.54-2.94-1.26-4.26-2.16-.93-.66-1.71-1.53-2.28-2.55-.48-.96-.72-2.01-.69-3.06,0-1.29.36-2.52,1.02-3.63.75-1.2,1.86-2.16,3.15-2.76,1.41-.72,3.18-1.05,5.31-1.05,1.23,0,2.49.09,3.72.27.9.12,1.77.36,2.58.69.12.03.24.15.3.27.03.12.06.24.06.36v4.89c0,.12-.06.24-.15.3-.27.06-.42.06-.54,0Z"/>
      </g>
    </g>
  </g>
</svg>