<?xml version="1.0" encoding="UTF-8"?>
<svg id="Layer_1" data-name="Layer 1" xmlns="http://www.w3.org/2000/svg" viewBox="0 0 72 72">
  <defs>
    <style>
      .cls-1 {
        fill: #49021f;
      }

      .cls-2 {
        fill: #f36;
      }
    </style>
  </defs>
  <path class="cls-1" d="M12.75.9h46.5c7.05,0,12.75,5.7,12.75,12.75v44.7c0,7.05-5.7,12.75-12.75,12.75H12.75c-7.05,0-12.75-5.7-12.75-12.75V13.65C0,6.6,5.7.9,12.75.9Z"/>
  <g id="vlpa">
    <g id="vlpb">
      <path class="cls-2" d="M26.16,19.26v30.9c0,.33-.15.48-.42.48h-5.88c-.27,0-.39-.15-.39-.48v-30.9c0-.27.15-.39.42-.39h5.85c.18-.03.36.09.39.3.03.03.03.06.03.09Z"/>
      <path class="cls-2" d="M43.5,51c-2.22.03-4.44-.42-6.45-1.35-1.89-.87-3.45-2.31-4.53-4.08-1.11-1.83-1.65-4.11-1.65-6.84-.03-2.22.54-4.41,1.65-6.33,1.14-1.95,2.79-3.57,4.77-4.65,2.1-1.17,4.62-1.74,7.59-1.74.15,0,.36,0,.63.03s.57.03.93.06v-9.48c0-.21.09-.33.3-.33h6.09c.15-.03.27.09.3.21v28.62c0,.54.03,1.14.06,1.8.06.63.09,1.23.12,1.74,0,.21-.09.39-.3.48-1.56.66-3.21,1.14-4.89,1.44-1.5.27-3.06.42-4.62.42h0ZM46.44,45v-13.2c-.27-.06-.54-.12-.81-.15-.33-.03-.66-.06-.99-.06-1.17,0-2.34.24-3.39.78-1.02.51-1.89,1.26-2.55,2.22s-.99,2.25-.99,3.81c-.03,1.05.15,2.1.51,3.09.3.81.75,1.53,1.35,2.13.57.54,1.26.96,2.04,1.2.81.27,1.65.39,2.49.39.45,0,.87-.03,1.26-.06.39.03.75-.03,1.08-.15h0Z"/>
    </g>
  </g>
</svg>