<?xml version="1.0" encoding="UTF-8"?>
<svg id="Layer_1" data-name="Layer 1" xmlns="http://www.w3.org/2000/svg" xmlns:xlink="http://www.w3.org/1999/xlink" viewBox="0 0 72 72">
  <defs>
    <style>
      .cls-1 {
        fill: url(#linear-gradient);
      }

      .cls-2 {
        fill: url(#linear-gradient-2);
        stroke: #fff;
        stroke-width: .14px;
      }
    </style>
    <linearGradient id="linear-gradient" x1="-182.75" y1="-229.18" x2="-119.83" y2="-279.12" gradientTransform="translate(190 -216) scale(1 -1)" gradientUnits="userSpaceOnUse">
      <stop offset="0" stop-color="#9013fe"/>
      <stop offset="1" stop-color="#6610f2"/>
    </linearGradient>
    <linearGradient id="linear-gradient-2" x1="-163.4" y1="-239.11" x2="-149.34" y2="-262.89" gradientTransform="translate(190 -216) scale(1 -1)" gradientUnits="userSpaceOnUse">
      <stop offset="0" stop-color="#fff"/>
      <stop offset="1" stop-color="#f1e5fc"/>
    </linearGradient>
  </defs>
  <path class="cls-1" d="M7.94,14.81c-.14-3.9,2.9-7.5,7.01-7.5h42.1c4.11,0,7.15,3.6,7.01,7.5-.13,3.75.04,8.6,1.26,12.56,1.23,3.97,3.29,6.48,6.68,6.8v3.66c-3.38.32-5.45,2.83-6.68,6.8-1.22,3.96-1.39,8.81-1.26,12.56.14,3.9-2.9,7.5-7.01,7.5H14.95c-4.11,0-7.15-3.6-7.01-7.5.13-3.75-.04-8.6-1.26-12.56-1.23-3.97-3.3-6.48-6.68-6.8v-3.66c3.38-.32,5.46-2.83,6.68-6.8,1.22-3.96,1.39-8.81,1.26-12.56Z"/>
  <path class="cls-2" d="M37.56,51.25c6.65,0,10.66-3.26,10.66-8.63,0-4.06-2.86-7-7.11-7.47v-.17c3.12-.51,5.57-3.4,5.57-6.64,0-4.61-3.64-7.61-9.19-7.61h-12.48v30.52h12.54ZM29.87,24.61h6.46c3.51,0,5.5,1.56,5.5,4.4,0,3.02-2.32,4.72-6.52,4.72h-5.44v-9.11ZM29.87,47.38v-10.04h6.41c4.59,0,6.98,1.69,6.98,4.99s-2.32,5.05-6.69,5.05h-6.69Z"/>
</svg>