<?xml version="1.0" encoding="UTF-8"?>
<svg id="Layer_1" data-name="Layer 1" xmlns="http://www.w3.org/2000/svg" viewBox="0 0 72 72">
  <defs>
    <style>
      .cls-1 {
        fill: #fff;
        fill-rule: evenodd;
      }
    </style>
  </defs>
  <path class="cls-1" d="M36.03.6C16.11.6,0,16.82,0,36.9c0,16.05,10.32,29.63,24.64,34.43,1.79.36,2.45-.78,2.45-1.74,0-.84-.06-3.73-.06-6.73-10.02,2.16-12.11-4.33-12.11-4.33-1.61-4.21-4-5.29-4-5.29-3.28-2.22.24-2.22.24-2.22,3.64.24,5.55,3.73,5.55,3.73,3.22,5.53,8.41,3.97,10.5,3,.3-2.34,1.25-3.97,2.27-4.87-7.99-.84-16.4-3.97-16.4-17.91,0-3.97,1.43-7.21,3.7-9.73-.36-.9-1.61-4.63.36-9.62,0,0,3.04-.96,9.9,3.73,2.94-.79,5.97-1.2,9.01-1.2,3.04,0,6.14.42,9.01,1.2,6.86-4.69,9.9-3.73,9.9-3.73,1.97,4.99.72,8.71.36,9.62,2.33,2.52,3.7,5.77,3.7,9.73,0,13.94-8.41,17.01-16.46,17.91,1.31,1.14,2.45,3.3,2.45,6.73,0,4.87-.06,8.77-.06,9.98,0,.96.66,2.1,2.45,1.74,14.32-4.81,24.64-18.39,24.64-34.43.06-20.07-16.11-36.3-35.97-36.3Z"/>
</svg>