<?xml version="1.0" encoding="UTF-8"?>
<svg id="Layer_1" data-name="Layer 1" xmlns="http://www.w3.org/2000/svg" viewBox="0 0 72 72">
  <defs>
    <style>
      .cls-1 {
        fill: #ebebeb;
      }

      .cls-2 {
        fill: #f16529;
      }

      .cls-3 {
        fill: #e44d26;
      }

      .cls-4 {
        fill: #fff;
      }
    </style>
  </defs>
  <path class="cls-4" d="M15.24,0h3.23v3.21h2.98V0h3.23v9.7h-3.23v-3.23h-2.95v3.23h-3.26M28.97,3.23h-2.85V0h8.96v3.23h-2.87v6.47h-3.23M36.49,0h3.39l2.08,3.42,2.08-3.42h3.39v9.7h-3.23v-4.81l-2.26,3.49-2.26-3.49v4.81h-3.18M49.04,0h3.23v6.5h4.58v3.21h-7.82"/>
  <path class="cls-3" d="M15.13,66.23L10.49,14.15h51.02l-4.64,52.06-20.91,5.79"/>
  <path class="cls-2" d="M36,67.57V18.42h20.85l-3.98,44.44"/>
  <path class="cls-1" d="M19.97,24.79h16.03v6.38h-9.03l.59,6.54h8.44v6.37h-14.29M21.99,47.29h6.41l.45,5.1,7.14,1.91v6.67l-13.11-3.66"/>
  <path class="cls-4" d="M51.98,24.79h-16v6.38h15.41M50.81,37.72h-14.84v6.38h7.87l-.75,8.3-7.13,1.91v6.64l13.08-3.63"/>
</svg>