<?xml version="1.0" encoding="UTF-8"?>
<svg id="Layer_1" data-name="Layer 1" xmlns="http://www.w3.org/2000/svg" viewBox="0 0 72 72">
  <defs>
    <style>
      .cls-1 {
        fill: #fff;
      }

      .cls-2 {
        fill: #005a9c;
      }
    </style>
  </defs>
  <g id="Layer_2" data-name="Layer 2">
    <g id="Surfaces">
      <g id="UI_UX_Surface" data-name="UI UX Surface">
        <g id="Outline_no_shadow" data-name="Outline no shadow">
          <path class="cls-1" d="M12.75.9h46.5c7.05,0,12.75,5.7,12.75,12.75v44.7c0,7.05-5.7,12.75-12.75,12.75H12.75c-7.05,0-12.75-5.7-12.75-12.75V13.65C0,6.6,5.7.9,12.75.9Z"/>
        </g>
      </g>
    </g>
  </g>
  <g>
    <path id="path1599" class="cls-2" d="M4.94,21.37l8.72,29.42h.36l5.45-18.23,5.45,18.23h.36l6.53-22.04c1.25-4.21.63-3.74,4.35-3.74h3.07l-6.07,10.53h2.44c1.57,0,3.23.57,4.1,1.71.12.16.23.33.33.51.02.04.05.08.07.13.1.18.19.37.26.57.31.8.46,1.77.46,2.9,0,1.6-.35,2.97-1.05,4.1-.19.31-.39.57-.61.8-.14.14-.28.27-.43.38-.01,0-.03.02-.04.03-.15.11-.3.2-.46.28-.14.07-.3.11-.45.15-.04,0-.08.02-.12.03-.16.03-.32.05-.48.05,0,0-.01,0-.02,0,0,0-.01,0-.02,0,0,0,0,0-.01,0,0,0-.02,0-.03,0-.22,0-.43-.02-.64-.06,0,0,0,0,0,0-.06-.01-.11-.03-.16-.04-.01,0-.02,0-.03,0-.01,0-.03,0-.04-.01-.14-.03-.28-.06-.41-.11-.21-.08-.41-.18-.6-.3-.19-.12-.38-.26-.56-.42-.38-.41-.66-.88-.97-1.34h-3.71c.25.75.56,1.42.92,2.04v.02c.03.07.08.14.12.21.26.42.53.81.84,1.17.27.32.57.61.88.88.16.13.32.26.48.38h0c.16.12.33.23.5.33.11.06.21.12.32.17.01,0,.03.02.04.02.05.03.1.06.16.08,0,0,0,0,0,0,.18.08.35.16.54.23,0,0,0,0,0,0h0c.18.07.36.12.55.17,0,0,0,0,.01,0h0c.19.05.38.09.57.12,0,0,0,0,.01,0,.17.03.35.05.53.07,0,0,0,0,.01,0,0,0,.01,0,.02,0,0,0,.02,0,.03,0h0s0,0,.01,0h0c.11,0,.22,0,.33.01.02,0,.05,0,.07,0,.01,0,.03,0,.04,0,.06,0,.11,0,.17,0,0,0,.01,0,.02,0,.16,0,.32-.02.48-.03h0c.17-.02.35-.02.51-.04.02,0,.05,0,.07-.01.31-.04.62-.11.91-.19,1.37-.39,2.55-1.2,3.53-2.45,1.42-1.82,2.13-4.06,2.13-6.72,0-2.15-.49-4.03-1.45-5.63-.74-1.21-1.74-2.14-3-2.78-.04-.02-.08-.04-.12-.06-.16-.08-.33-.16-.5-.23-.21-.09-.43-.17-.66-.24,2.13-3.68,4.29-7.34,6.38-11.04h-11.47c-3.31,0-3.98.56-5.13,4.48l-3.95,13.43-5.27-17.91h-3.81l.87,2.93c.73,2.44.66,3.63-.02,5.94l-2.67,9.04-5.27-17.91h-3.81Z"/>
    <path id="path6" d="M64.27,21.37c-.75,0-1.42.27-1.93.79-.54.55-.84,1.26-.84,1.99s.29,1.41.81,1.95c.53.54,1.22.83,1.96.83s1.43-.29,1.98-.83c.52-.51.81-1.19.81-1.95s-.29-1.44-.8-1.95c-.53-.54-1.23-.83-1.98-.83ZM66.69,24.18c0,.64-.25,1.24-.7,1.68-.48.46-1.07.71-1.73.71-.62,0-1.23-.25-1.68-.72-.46-.46-.71-1.06-.71-1.69s.26-1.25.73-1.73c.44-.45,1.03-.69,1.68-.69s1.26.25,1.72.72c.45.45.69,1.05.69,1.72ZM64.35,22.52h-1.19v3.15h.59v-1.34h.59l.64,1.34h.66l-.7-1.44c.46-.09.72-.4.72-.85,0-.57-.43-.87-1.31-.87ZM64.24,22.91c.56,0,.81.15.81.54s-.25.5-.8.5h-.5v-1.04h.49Z"/>
    <path id="path8" d="M59.6,21.21l.31,1.88c.29,1.75,0,2.48-.78,3.97l-1.09,2.09s-.84-1.77-2.23-2.76c-1.18-.83-1.94-1.01-3.14-.76-1.54.32-3.28,2.16-4.04,4.42-.91,2.71-.92,4.02-.95,5.23-.05,1.93.25,3.07.25,3.07,0,0-1.33-2.46-1.31-6.05,0-2.57.41-4.9,1.6-7.19,1.05-2.02,2.6-3.23,3.98-3.38,1.43-.15,2.55.54,3.42,1.28.91.78,1.84,2.49,1.84,2.49l2.15-4.29Z"/>
    <path id="path10" d="M59.87,42.46s-.97,1.73-1.57,2.39c-.6.67-1.68,1.84-3.01,2.42-1.33.59-2.03.7-3.34.57-1.31-.13-2.54-.89-2.96-1.2-.43-.32-1.52-1.25-2.14-2.12-.62-.87-1.58-2.61-1.58-2.61,0,0,.54,1.75.88,2.49.19.43.79,1.73,1.64,2.87.79,1.06,2.32,2.88,4.65,3.3,2.33.41,3.93-.63,4.33-.89.4-.25,1.31-.85,1.84-1.42.55-.59.84-1.01,1.21-1.76.27-.54.5-1.81.35-2.59l-.28-1.45Z"/>
  </g>
</svg>