<?xml version="1.0" encoding="UTF-8"?>
<svg id="Layer_1" data-name="Layer 1" xmlns="http://www.w3.org/2000/svg" viewBox="0 0 72 72">
  <defs>
    <style>
      .cls-1 {
        fill: #21759b;
      }

      .cls-2 {
        fill: #fff;
      }
    </style>
  </defs>
  <path class="cls-2" d="M36,.67C16.52.67.67,16.52.67,36s15.85,35.33,35.33,35.33,35.33-15.85,35.33-35.33c0-19.48-15.85-35.33-35.33-35.33Z"/>
  <g>
    <path class="cls-1" d="M5.12,36c0,12.22,7.1,22.79,17.4,27.79L7.79,23.43c-1.71,3.84-2.67,8.09-2.67,12.57Z"/>
    <path class="cls-1" d="M56.85,34.44c0-3.82-1.37-6.46-2.55-8.52-1.57-2.54-3.03-4.7-3.03-7.24,0-2.84,2.15-5.48,5.19-5.48.14,0,.27.02.4.02-5.49-5.03-12.81-8.11-20.85-8.11-10.79,0-20.28,5.54-25.8,13.92.72.02,1.41.04,1.99.04,3.23,0,8.23-.39,8.23-.39,1.66-.1,1.86,2.35.2,2.54,0,0-1.67.2-3.53.29l11.25,33.45,6.76-20.27-4.81-13.18c-1.66-.1-3.24-.29-3.24-.29-1.66-.1-1.47-2.64.2-2.54,0,0,5.1.39,8.13.39,3.23,0,8.23-.39,8.23-.39,1.67-.1,1.86,2.35.2,2.54,0,0-1.68.2-3.53.29l11.16,33.2,3.08-10.29c1.34-4.27,2.35-7.34,2.35-9.98Z"/>
    <path class="cls-1" d="M36.54,38.7l-9.27,26.92c2.77.81,5.69,1.26,8.72,1.26,3.6,0,7.05-.62,10.26-1.75-.08-.13-.16-.27-.22-.43l-9.49-26.01Z"/>
    <path class="cls-1" d="M63.1,21.18c.13.98.21,2.04.21,3.18,0,3.13-.59,6.66-2.35,11.06l-9.43,27.27c9.18-5.35,15.36-15.3,15.36-26.69,0-5.37-1.37-10.42-3.78-14.82Z"/>
    <path class="cls-1" d="M36,0C16.15,0,0,16.15,0,36s16.15,36,36,36,36-16.15,36-36C72,16.15,55.85,0,36,0ZM36,70.35C17.06,70.35,1.65,54.94,1.65,36S17.06,1.65,36,1.65s34.35,15.41,34.35,34.35-15.41,34.35-34.35,34.35Z"/>
  </g>
</svg>