<?xml version="1.0" encoding="UTF-8"?>
<svg id="Layer_1" xmlns="http://www.w3.org/2000/svg" version="1.1" viewBox="0 0 232.316 136.945">
  <!-- Generator: Adobe Illustrator 29.1.0, SVG Export Plug-In . SVG Version: 2.1.0 Build 142)  -->
  <path d="M228.162,56.66c-.205-2.127-.616-4.123-1.231-5.99-.308-.933-.667-1.834-1.078-2.703-1.642-3.474-4.106-6.429-7.391-8.865-6.565-4.869-15.704-7.306-27.411-7.306h-37.076c-.659,0-1.23.454-1.379,1.096l-4.471,19.288c-.206.887.468,1.735,1.379,1.735h37.796c.48,0,.942.011,1.386.034,1.332.069,2.5.241,3.504.517.67.184,1.267.414,1.792.691.525.276.978.599,1.358.968,1.521,1.475,2.282,3.507,2.282,6.1,0,.469-.031.928-.093,1.378-.062.45-.154.89-.277,1.32-.246.86-.615,1.682-1.106,2.463-.741,1.172-1.716,2.169-2.93,2.99-.405.273-.836.527-1.294.761-.458.235-.943.44-1.454.616-1.533.528-3.304.791-5.313.791h-10.594l2.851-12.359c.096-.418-.007-.823-.233-1.138-.254-.355-.664-.595-1.146-.595h-36.213c-.278,0-.483-.258-.421-.529l4.362-18.981,7.631-33.203c.314-1.364-1.332-2.307-2.35-1.347l-53.064,50.11-14.297,13.288,13.585-17.085-.295-1.574-3.035-16.181c-.126-.669-.71-1.155-1.391-1.155h-31.562c-.488,0-.941.251-1.2.665L4.215,118.097c-.59.943.088,2.166,1.2,2.166h28.469c.538,0,1.029-.305,1.268-.786l8.387-16.907h29.979l2.016,16.45c.087.71.69,1.243,1.405,1.243h22.233l-.398,1.732s0,0,0,0l-2.117,9.211c-.313,1.363,1.33,2.307,2.349,1.348l4.519-4.25,34.467-32.41,21.37-20.095-22.677,25.731-3.94,16.997c-.206.887.468,1.735,1.379,1.735h28.325c.659,0,1.231-.455,1.379-1.098l5.641-24.503h18.364c1.061,0,2.103-.023,3.126-.069,2.045-.092,4.014-.277,5.906-.553,2.838-.415,5.503-1.037,7.995-1.867,1.662-.553,3.246-1.199,4.754-1.937,2.262-1.105,4.327-2.371,6.193-3.797,2.489-1.901,4.626-4.088,6.411-6.558.446-.618.87-1.253,1.273-1.906,1.204-1.961,2.183-4.032,2.937-6.212,1.256-3.634,1.886-7.573,1.886-11.816,0-1.128-.051-2.224-.154-3.287ZM108.332,80.406h0s-2.343,10.197-2.343,10.197l-2.645,11.508-3.023-17.736c-.116-.68-.705-1.177-1.394-1.177h-48.724l7.352-12.06,10.664-17.492h.673l1.264,21.232.147,2.466c.023.385.2.725.467.965.252.227.583.366.946.366h36.473c.278,0,.483.258.421.529l-.277,1.204Z" fill="#0f0f0f"/>
  <g>
    <path d="M108.188,78.674h-36.473c-.363,0-.695-.139-.946-.366-.267-.241-.444-.58-.467-.965l-.147-2.466-1.264-21.232h-.673l-10.664,17.492-7.352,12.06h48.724c.689,0,1.278.498,1.394,1.177l3.023,17.736,2.645-11.508,2.343-10.197h0s.277-1.204.277-1.204c.062-.271-.143-.529-.421-.529Z" fill="#fafafa"/>
    <path d="M232.143,56.275c-.232-2.413-.709-4.722-1.414-6.859-.357-1.083-.781-2.146-1.26-3.159-1.92-4.061-4.822-7.549-8.625-10.368-7.241-5.37-17.265-8.093-29.793-8.093h-37.076c-1.537,0-2.94.635-3.935,1.687l5.251-22.848c.372-1.62-.003-3.288-1.028-4.576-1.026-1.289-2.62-2.059-4.263-2.059-1.375,0-2.689.526-3.704,1.483l-47.738,45.08-2.691-14.348c-.478-2.561-2.717-4.42-5.322-4.42h-31.562c-1.882,0-3.599.953-4.591,2.543L.822,115.978c-1.042,1.669-1.098,3.774-.144,5.496.954,1.721,2.769,2.79,4.736,2.79h28.47c2.07,0,3.928-1.151,4.851-3.009l7.284-14.685h23.959l1.585,12.937c.332,2.712,2.644,4.757,5.376,4.757h17.208l-1.39,6.05c-.372,1.62.004,3.287,1.03,4.575,1.025,1.288,2.618,2.057,4.261,2.057,1.371,0,2.684-.523,3.697-1.476l29.368-27.616-2.265,9.771c-.376,1.618.002,3.292,1.035,4.593s2.579,2.047,4.24,2.047h28.324c2.535,0,4.705-1.726,5.278-4.2l4.926-21.4h15.181c1.132,0,2.245-.024,3.306-.073,2.164-.098,4.286-.296,6.306-.591,3.055-.447,5.976-1.13,8.679-2.031,1.823-.606,3.59-1.326,5.246-2.137,2.487-1.215,4.798-2.633,6.866-4.213,2.789-2.13,5.221-4.618,7.229-7.396.503-.697.985-1.421,1.438-2.154,1.351-2.2,2.464-4.556,3.308-6.997,1.397-4.041,2.106-8.457,2.106-13.124,0-1.247-.059-2.481-.173-3.671ZM226.43,71.763c-.754,2.18-1.733,4.251-2.937,6.212-.402.653-.826,1.289-1.273,1.906-1.785,2.471-3.922,4.657-6.411,6.558-1.867,1.426-3.931,2.692-6.193,3.797-1.508.738-3.093,1.383-4.754,1.937-2.492.83-5.157,1.452-7.995,1.867-1.892.277-3.861.461-5.906.553-1.023.046-2.065.069-3.126.069h-18.364l-5.641,24.503c-.148.642-.72,1.098-1.379,1.098h-28.325c-.911,0-1.585-.848-1.379-1.735l3.94-16.997,22.677-25.731-21.37,20.095-34.467,32.41-4.519,4.25c-1.019.958-2.663.015-2.349-1.348l2.117-9.211s0,0,0,0l.398-1.732h-22.233c-.715,0-1.318-.533-1.405-1.243l-2.016-16.45h-29.979l-8.387,16.907c-.239.482-.73.786-1.268.786H5.415c-1.112,0-1.79-1.223-1.2-2.166L57.783,32.46c.259-.414.712-.665,1.2-.665h31.562c.681,0,1.266.485,1.391,1.155l3.035,16.181.295,1.574-13.585,17.085,14.297-13.288L149.043,4.392c1.018-.96,2.664-.017,2.35,1.347l-7.631,33.203-4.362,18.981c-.062.271.143.529.421.529h36.213c.482,0,.892.241,1.146.595.226.316.329.721.233,1.138l-2.851,12.359h10.594c2.008,0,3.779-.263,5.313-.791.511-.176.996-.381,1.454-.616.458-.234.89-.488,1.294-.761,1.214-.82,2.19-1.817,2.93-2.99.491-.782.86-1.603,1.106-2.463.123-.43.216-.87.277-1.32.062-.45.093-.909.093-1.378,0-2.594-.761-4.625-2.282-6.1-.38-.369-.833-.692-1.358-.968-.525-.276-1.122-.507-1.792-.691-1.005-.276-2.173-.448-3.504-.517-.444-.023-.906-.034-1.386-.034h-37.796c-.911,0-1.585-.848-1.379-1.735l4.471-19.288c.149-.642.72-1.096,1.379-1.096h37.076c11.706,0,20.846,2.437,27.411,7.306,3.286,2.436,5.749,5.391,7.391,8.865.41.869.77,1.77,1.078,2.703.616,1.867,1.026,3.864,1.231,5.99.103,1.063.154,2.159.154,3.287,0,4.243-.63,8.182-1.886,11.816Z" fill="#fafafa"/>
  </g>
</svg>