<?xml version="1.0" encoding="utf-8"?>
<!-- Generator: Adobe Illustrator 26.5.0, SVG Export Plug-In . SVG Version: 6.00 Build 0)  -->
<svg version="1.1" id="Layer_1" xmlns="http://www.w3.org/2000/svg" xmlns:xlink="http://www.w3.org/1999/xlink" x="0px" y="0px"
	 viewBox="0 0 360 206.939" style="enable-background:new 0 0 360 206.939;" xml:space="preserve">
<style type="text/css">
	.st0{fill:none;}
	.st1{fill:#0F0F0F;}
	.st2{fill:#BB9056;}
</style>
<g>
	<path class="st0" d="M106.409,117.704l-0.236-3.957l-2.028-34.074h-1.08l-17.113,28.072L74.152,127.1h78.196
		c1.106,0.001,2.052,0.799,2.238,1.89l4.851,28.464l4.245-18.469l3.761-16.364v0l0.444-1.932c0.1-0.434-0.23-0.848-0.676-0.848
		h-58.534c-0.583,0-1.115-0.224-1.518-0.587C106.73,118.867,106.446,118.322,106.409,117.704z"/>
	<path class="st1" d="M359.753,84.511c-0.329-3.413-0.988-6.617-1.976-9.613c-0.494-1.498-1.071-2.944-1.729-4.338
		c-2.635-5.576-6.589-10.318-11.862-14.227c-10.536-7.813-25.203-11.725-43.99-11.725h-59.501c-1.057,0-1.974,0.729-2.213,1.759
		l-7.176,30.955c-0.33,1.424,0.751,2.785,2.213,2.785h60.658c0.771,0,1.512,0.018,2.224,0.055c2.137,0.111,4.011,0.387,5.624,0.83
		c1.075,0.295,2.034,0.665,2.876,1.108c0.842,0.443,1.569,0.961,2.179,1.553c2.441,2.368,3.662,5.628,3.662,9.79
		c0,0.752-0.05,1.489-0.149,2.211c-0.099,0.722-0.247,1.428-0.445,2.118c-0.395,1.381-0.987,2.699-1.775,3.953
		c-1.189,1.882-2.754,3.482-4.703,4.798c-0.65,0.439-1.342,0.846-2.077,1.221c-0.735,0.377-1.513,0.706-2.333,0.989
		c-2.461,0.847-5.302,1.27-8.526,1.27h-17.002l4.575-19.835c0.154-0.67-0.011-1.321-0.374-1.827l-62.891,59.138l-1.693,7.303
		c0,0,0,0.001,0,0.001l-6.726,29.018c-0.33,1.424,0.751,2.785,2.213,2.785h45.457c1.058,0,1.976-0.731,2.214-1.762l9.053-39.323
		h29.472c1.703,0,3.375-0.037,5.016-0.111c3.283-0.148,6.442-0.444,9.478-0.888c4.554-0.666,8.831-1.665,12.831-2.997
		c2.667-0.888,5.21-1.924,7.63-3.108c3.63-1.774,6.943-3.806,9.939-6.094c3.995-3.052,7.425-6.56,10.289-10.526
		c0.716-0.991,1.397-2.011,2.042-3.06c1.932-3.147,3.504-6.47,4.714-9.969c2.016-5.832,3.027-12.153,3.027-18.963
		C360,87.976,359.918,86.217,359.753,84.511z"/>
	<path class="st1" d="M154.586,128.99c-0.186-1.091-1.131-1.889-2.238-1.89H74.152l11.799-19.355l17.113-28.072h1.08l2.028,34.074
		l0.236,3.957c0.037,0.618,0.321,1.163,0.749,1.549l40.458-38.205L146,72.428l-4.871-25.968c-0.201-1.074-1.14-1.853-2.233-1.853
		H88.244c-0.783,0-1.511,0.403-1.926,1.067L0.349,183.11c-0.946,1.513,0.141,3.476,1.926,3.476h45.689
		c0.863,0,1.651-0.489,2.035-1.262l13.46-27.133h48.112l3.236,26.4c0.14,1.139,1.107,1.995,2.255,1.995h35.68l6.695-29.132
		L154.586,128.99z"/>
	<path class="st2" d="M276.095,87.386h-58.117c-0.446,0-0.775-0.414-0.676-0.848l7.001-30.461L236.55,2.79
		c0.503-2.19-2.138-3.702-3.772-2.162l-85.161,80.42l-40.458,38.205c0.404,0.364,0.935,0.587,1.518,0.587h58.534
		c0.446,0,0.775,0.414,0.676,0.848l-0.444,1.932v0l-3.761,16.364l-4.245,18.469l-6.695,29.132l-0.639,2.78c0,0,0,0.001,0,0.001
		l-3.397,14.783c-0.503,2.188,2.135,3.702,3.77,2.164l7.253-6.82l55.315-52.014l62.891-59.138
		C277.526,87.772,276.868,87.386,276.095,87.386z"/>
</g>
</svg>
