<?xml version="1.0" encoding="utf-8"?>
<!-- Generator: Adobe Illustrator 24.3.0, SVG Export Plug-In . SVG Version: 6.00 Build 0)  -->
<svg version="1.1" id="Layer_1" focusable="false" xmlns="http://www.w3.org/2000/svg" xmlns:xlink="http://www.w3.org/1999/xlink"
	 x="0px" y="0px" width="512px" height="512px" viewBox="0 0 512 512" style="enable-background:new 0 0 512 512;"
	 xml:space="preserve">
<g>
	<polygon points="360.511,175.621 291.64,175.621 315.21,73.064 167.821,212.247 236.692,212.247 213.122,314.804 	"/>
	<path d="M509.735,122.456l-80.086-98.499l-2.199-2.705h-3.486H12.725H2.777l94.154,51.416L2.083,481.766L0,490.749h9.222h178.099
		h5.832l1.309-5.684l27.272-118.42h135.971h2.913l2.118-2l118.332-111.741l1.605-1.517l0.501-2.152l28.013-120.498l0.812-3.497
		L509.735,122.456z M89.222,333.27l94.155,51.416l-16.751,72.732H41.941l93.385-402.836h276.243l64.275,78.992l-23.243,99.98
		l-105.647,99.76L89.222,333.27z"/>
</g>
</svg>
