<?xml version="1.0" encoding="utf-8"?>
<!-- Generator: Adobe Illustrator 24.3.0, SVG Export Plug-In . SVG Version: 6.00 Build 0)  -->
<svg version="1.1" id="Layer_1" focusable="false" xmlns="http://www.w3.org/2000/svg" xmlns:xlink="http://www.w3.org/1999/xlink"
	 x="0px" y="0px" width="512px" height="512px" viewBox="0 0 512 512" style="enable-background:new 0 0 512 512;"
	 xml:space="preserve">
<g>
	<g>
		<polygon points="352.2,182 288.8,182 310.5,87.7 174.9,215.7 238.2,215.7 216.5,310.1 		"/>
		<path d="M489.5,133.1l-73.7-90.6l-2-2.5h-3.2H32.2H23l86.6,47.3L22.4,463.7l-1.9,8.3h8.5h163.9h5.4l1.2-5.2l25.1-109h125.1h2.7
			l1.9-1.8l108.9-102.8l1.5-1.4l0.5-2l25.8-110.9l0.7-3.2L489.5,133.1z M102.5,327.1l86.6,47.3l-15.4,66.9H59L145,70.7h254.2
			l59.1,72.7l-21.4,92l-97.2,91.8L102.5,327.1z"/>
	</g>
</g>
</svg>
