<?xml version="1.0" encoding="utf-8"?>
<!-- Generator: Adobe Illustrator 24.3.0, SVG Export Plug-In . SVG Version: 6.00 Build 0)  -->
<svg version="1.1" id="Layer_1" focusable="false" xmlns="http://www.w3.org/2000/svg" xmlns:xlink="http://www.w3.org/1999/xlink"
	 x="0px" y="0px" width="512px" height="512px" viewBox="0 0 512 512" style="enable-background:new 0 0 512 512;"
	 xml:space="preserve">
<g>
	<polygon points="357.006,182.041 293.635,182.041 315.322,87.675 179.705,215.741 243.075,215.741 221.388,310.107 	"/>
	<path d="M489.47,133.121L415.78,42.489L413.757,40h-3.208H32.155h-9.154l84.541,56.339l-85.18,367.396L20.446,472h8.485h163.875
		h5.367l1.205-5.229l25.094-108.962h125.111h2.681l1.949-1.841l108.881-102.816l1.478-1.396l0.461-1.98l25.774-110.874l0.748-3.218
		L489.47,133.121z M102.542,327.099l84.548,56.368l-13.326,57.864H59.037l85.926-370.663h254.18l59.142,72.684l-21.387,91.995
		l-97.21,91.792L102.542,327.099z"/>
</g>
</svg>
